<svg xmlns="http://www.w3.org/2000/svg" width="512" height="512" viewBox="0 0 512 512"><defs><linearGradient id="bg" x1="0%" x2="100%" y1="0%" y2="100%"><stop offset="0%" style="stop-color:#0a0a1a"/><stop offset="100%" style="stop-color:#050510"/></linearGradient><linearGradient id="ring1" x1="0%" x2="100%" y1="0%" y2="100%"><stop offset="0%" style="stop-color:#00e5ff"/><stop offset="50%" style="stop-color:#7c3aed"/><stop offset="100%" style="stop-color:#f72585"/></linearGradient><linearGradient id="ring2" x1="100%" x2="0%" y1="0%" y2="100%"><stop offset="0%" style="stop-color:#06ffa5"/><stop offset="100%" style="stop-color:#00e5ff"/></linearGradient><linearGradient id="star" x1="0%" x2="100%" y1="0%" y2="100%"><stop offset="0%" style="stop-color:#00e5ff"/><stop offset="100%" style="stop-color:#7c3aed"/></linearGradient><filter id="glow"><feGaussianBlur result="coloredBlur" stdDeviation="8"/><feMerge><feMergeNode in="coloredBlur"/><feMergeNode in="SourceGraphic"/></feMerge></filter><filter id="softglow"><feGaussianBlur result="coloredBlur" stdDeviation="4"/><feMerge><feMergeNode in="coloredBlur"/><feMergeNode in="SourceGraphic"/></feMerge></filter><radialGradient id="center-glow" cx="50%" cy="50%" r="50%"><stop offset="0%" style="stop-color:#00e5ff;stop-opacity:.15"/><stop offset="100%" style="stop-color:#050510;stop-opacity:0"/></radialGradient></defs><rect width="512" height="512" fill="url(#bg)" rx="120"/><circle cx="256" cy="256" r="200" fill="url(#center-glow)"/><circle cx="256" cy="256" r="180" fill="none" stroke="url(#ring1)" stroke-width="3" opacity=".6"/><circle cx="256" cy="256" r="140" fill="none" stroke="url(#ring2)" stroke-width="1.5" opacity=".4"/><circle cx="256" cy="256" r="100" fill="none" stroke="#7C3AED" stroke-width="1" opacity=".3"/><circle cx="436" cy="256" r="6" fill="#00E5FF" filter="url(#softglow)" opacity=".9"/><circle cx="76" cy="256" r="4" fill="#F72585" filter="url(#softglow)" opacity=".8"/><circle cx="256" cy="76" r="5" fill="#7C3AED" filter="url(#softglow)" opacity=".9"/><circle cx="256" cy="436" r="4" fill="#06FFA5" filter="url(#softglow)" opacity=".8"/><circle cx="383" cy="129" r="4" fill="#00E5FF" opacity=".5"/><circle cx="129" cy="383" r="3" fill="#F72585" opacity=".5"/><circle cx="383" cy="383" r="4" fill="#06FFA5" opacity=".5"/><circle cx="129" cy="129" r="3" fill="#7C3AED" opacity=".5"/><g filter="url(#glow)" transform="translate(256,256)"><path fill="url(#star)" d="M0,-75 C2,-40 2,-20 0,0 C-2,-20 -2,-40 0,-75Z"/><path fill="url(#star)" d="M0,75 C2,40 2,20 0,0 C-2,20 -2,40 0,75Z"/><path fill="url(#star)" d="M-75,0 C-40,2 -20,2 0,0 C-20,-2 -40,-2 -75,0Z"/><path fill="url(#star)" d="M75,0 C40,2 20,2 0,0 C20,-2 40,-2 75,0Z"/><path fill="#00E5FF" d="M-40,-40 C-20,-20 -8,-8 0,0 C-8,-8 -20,-20 -40,-40Z" opacity=".7"/><path fill="#00E5FF" d="M40,40 C20,20 8,8 0,0 C8,8 20,20 40,40Z" opacity=".7"/><path fill="#7C3AED" d="M40,-40 C20,-20 8,-8 0,0 C8,-8 20,-20 40,-40Z" opacity=".7"/><path fill="#7C3AED" d="M-40,40 C-20,20 -8,8 0,0 C-8,8 -20,20 -40,40Z" opacity=".7"/><circle cx="0" cy="0" r="8" fill="#fff" opacity=".95"/></g><circle cx="180" cy="180" r="2" fill="#00E5FF" opacity=".2"/><circle cx="332" cy="180" r="2" fill="#00E5FF" opacity=".2"/><circle cx="180" cy="332" r="2" fill="#00E5FF" opacity=".2"/><circle cx="332" cy="332" r="2" fill="#00E5FF" opacity=".2"/><text x="256" y="480" fill="#fff" font-family="'Arial', sans-serif" font-size="28" font-weight="bold" letter-spacing="8" opacity=".7" text-anchor="middle">NEXUS</text></svg>